<svg width="300.0000000000001" height="730.0" xmlns="http://www.w3.org/2000/svg">
<line x1="50.0" y1="715.0" x2="50.00000000000001" y2="615.0" style="stroke:#345ec3;stroke-width:5"/>
<line x1="50.00000000000001" y1="615.0" x2="50.000000000000014" y2="515.0" style="stroke:#34c173;stroke-width:5"/>
<line x1="50.000000000000014" y1="515.0" x2="50.00000000000002" y2="415.0" style="stroke:#c13434;stroke-width:5"/>
<line x1="150.0" y1="615.0" x2="150.00000000000003" y2="515.0" style="stroke:#c13434;stroke-width:5"/>
<line x1="150.0" y1="715.0" x2="150.0" y2="615.0" style="stroke:#34c173;stroke-width:5"/>
<line x1="150.00000000000003" y1="415.0" x2="150.00000000000006" y2="315.0" style="stroke:#345ec3;stroke-width:5"/>
<line x1="150.00000000000003" y1="515.0" x2="150.00000000000003" y2="415.0" style="stroke:#c13434;stroke-width:5"/>
<line x1="250.00000000000006" y1="515.0" x2="250.00000000000009" y2="415.0" style="stroke:#c13434;stroke-width:5"/>
<line x1="250.00000000000006" y1="615.0" x2="250.00000000000006" y2="515.0" style="stroke:#34c173;stroke-width:5"/>
<line x1="250.00000000000006" y1="715.0" x2="250.00000000000006" y2="615.0" style="stroke:#345ec3;stroke-width:5"/>
<line x1="250.00000000000009" y1="115.0" x2="250.0000000000001" y2="15.0" style="stroke:#345ec3;stroke-width:5"/>
<line x1="250.00000000000009" y1="215.0" x2="250.00000000000009" y2="115.0" style="stroke:#c13434;stroke-width:5"/>
<line x1="250.00000000000009" y1="315.0" x2="250.00000000000009" y2="215.0" style="stroke:#c13434;stroke-width:5"/>
<line x1="250.00000000000009" y1="415.0" x2="250.00000000000009" y2="315.0" style="stroke:#34c173;stroke-width:5"/>
<circle cx="50.0" cy="715.0" r="5.0" stroke="white" fill="#282828"/>
<circle cx="50.00000000000001" cy="615.0" r="5.0" stroke="white" fill="#282828"/>
<circle cx="50.000000000000014" cy="515.0" r="5.0" stroke="white" fill="#282828"/>
<circle cx="50.00000000000002" cy="415.0" r="5.0" stroke="white" fill="#282828"/>
<circle cx="150.0" cy="615.0" r="5.0" stroke="white" fill="#282828"/>
<circle cx="150.0" cy="715.0" r="5.0" stroke="white" fill="#282828"/>
<circle cx="150.00000000000003" cy="415.0" r="5.0" stroke="white" fill="#282828"/>
<circle cx="150.00000000000003" cy="515.0" r="5.0" stroke="white" fill="#282828"/>
<circle cx="150.00000000000006" cy="315.0" r="5.0" stroke="white" fill="#282828"/>
<circle cx="250.00000000000006" cy="515.0" r="5.0" stroke="white" fill="#282828"/>
<circle cx="250.00000000000006" cy="615.0" r="5.0" stroke="white" fill="#282828"/>
<circle cx="250.00000000000006" cy="715.0" r="5.0" stroke="white" fill="#282828"/>
<circle cx="250.00000000000009" cy="115.0" r="5.0" stroke="white" fill="#282828"/>
<circle cx="250.00000000000009" cy="215.0" r="5.0" stroke="white" fill="#282828"/>
<circle cx="250.00000000000009" cy="315.0" r="5.0" stroke="white" fill="#282828"/>
<circle cx="250.00000000000009" cy="415.0" r="5.0" stroke="white" fill="#282828"/>
<circle cx="250.0000000000001" cy="15.0" r="5.0" stroke="white" fill="#282828"/>
<rect x="0" y="705.0" width="300.0000000000001" height="20.0" fill="#FFFFFF"/>
</svg>
