<?xml version="1.0" encoding="UTF-8"?>
<svg width="1200pt" height="1200pt" version="1.1" viewBox="0 0 1200 1200" xmlns="http://www.w3.org/2000/svg">
 <g fill="#f49584">
  <path d="m443.52 95.746-20.113 39.512c132.23 67.293 221.07 253.91 221.07 465.11 0 210.46-88.84 397.08-221.07 464.39l20.113 39.512c146.72-74.676 245.29-277.18 245.29-504.61 0-226.73-98.574-429.24-245.29-503.9z"/>
  <path d="m699.34 69.707c38.891 66.363 100.6 268.91 100.6 530.69 0 260.99-61.707 463.54-100.6 529.9l38.25 22.414c51.719-88.246 106.68-311.8 106.68-553.1 0-240.51-54.965-464.07-106.68-552.31z"/>
  <path d="m929.48 30h44.332v1140h-44.332z"/>
  <path d="m552.77 584.33-129.55-129.55-31.344 31.344 91.703 91.711h-257.39v44.332h257.39l-91.703 91.711 31.344 31.344 129.55-129.55c8.6562-8.6523 8.6562-22.684 0-31.34z"/>
 </g>
</svg>
