<?xml version="1.0" encoding="UTF-8"?>
<svg width="1200pt" height="1200pt" version="1.1" viewBox="0 0 1200 1200" xmlns="http://www.w3.org/2000/svg">
 <g fill="#848bf4">
  <path d="m1141.4 541.41c-15.539 0-30.445 6.1719-41.434 17.16-10.988 10.988-17.16 25.895-17.16 41.434 0 266.22-216.59 482.81-482.81 482.81s-482.81-216.59-482.81-482.81c0-20.934-11.168-40.277-29.297-50.742-18.129-10.469-40.465-10.469-58.594 0-18.129 10.465-29.297 29.809-29.297 50.742 0 118.67 35.188 234.67 101.12 333.34 65.93 98.672 159.64 175.57 269.27 220.99 109.64 45.41 230.28 57.293 346.66 34.141 116.39-23.148 223.3-80.293 307.21-164.21 55.891-55.586 100.2-121.71 130.36-194.53 30.164-72.824 45.586-150.91 45.371-229.73 0-15.539-6.1719-30.445-17.16-41.434-10.988-10.988-25.895-17.16-41.434-17.16z"/>
  <path d="m454.88 263.71 86.543-86.543v602.92c0 20.934 11.168 40.277 29.297 50.746 18.129 10.465 40.465 10.465 58.594 0 18.129-10.469 29.297-29.812 29.297-50.746v-602.92l86.543 86.543c14.805 14.801 36.379 20.582 56.598 15.164 20.223-5.418 36.016-21.211 41.434-41.434 5.418-20.219-0.36328-41.793-15.168-56.598l-147.5-147.49c-21.352-21.352-50.309-33.348-80.504-33.348-30.195 0-59.152 11.996-80.5 33.348l-147.5 147.49c-10.988 10.988-17.16 25.895-17.16 41.434 0 15.539 6.1719 30.445 17.16 41.434s25.891 17.16 41.434 17.16c15.539 0 30.441-6.1719 41.43-17.16z"/>
 </g>
</svg>
