<?xml version="1.0" encoding="UTF-8"?>
<svg width="1200pt" height="1200pt" version="1.1" viewBox="0 0 1200 1200" xmlns="http://www.w3.org/2000/svg">
 <g fill="#84e5f4">
  <path d="m412.5 937.5c-186.11 0-337.5-151.39-337.5-337.5 0-186.07 151.39-337.5 337.5-337.5 15.824 0 31.312 1.5 46.539 3.6016 22.949-22.574 48.336-42.637 75.523-60.148-38.586-11.965-79.574-18.453-122.06-18.453-227.44 0-412.5 185.06-412.5 412.5s185.06 412.5 412.5 412.5c42.488 0 83.477-6.4883 122.06-18.449-27.188-17.512-52.539-37.574-75.523-60.148-15.227 2.1367-30.715 3.5977-46.539 3.5977z"/>
  <path d="m787.5 187.5c-227.44 0-412.5 185.06-412.5 412.5s185.06 412.5 412.5 412.5 412.5-185.06 412.5-412.5-185.06-412.5-412.5-412.5zm0 750c-42.863 0-83.625-8.3633-121.39-22.949 86.773-76.914 141.56-189.07 141.56-314.14 0-125.51-55.539-237.52-142.88-314.48 38.098-14.926 79.387-23.438 122.7-23.438 186.11 0 337.5 151.43 337.5 337.5 0 186.11-151.39 337.5-337.5 337.5z"/>
 </g>
</svg>
