<?xml version="1.0" encoding="UTF-8"?>
<svg width="1200pt" height="1200pt" version="1.1" viewBox="0 0 1200 1200" xmlns="http://www.w3.org/2000/svg">
 <path d="m1166.4 1118.4-102-223.2c56.398-87.602 88.801-192 88.801-303.6 0-310.8-252-561.6-561.6-561.6-309.6 0.003906-561.6 252-561.6 561.61 0 309.6 252 561.6 561.6 561.6 111.6 0 216-32.398 303.6-88.801l223.2 102c29.996 14.398 62.398-18.004 47.996-48.004zm-751.2-790.8h354c18 0 33.602 14.398 33.602 33.602 0 19.199-14.398 33.602-33.602 33.602l-354-0.003907c-18 0-33.602-14.398-33.602-33.602 0.003906-19.199 15.602-33.598 33.602-33.598zm354 529.2h-354c-18 0-33.602-14.398-33.602-33.602 0-19.199 14.398-33.602 33.602-33.602h354c18 0 33.602 14.398 33.602 33.602 0 19.199-15.602 33.602-33.602 33.602zm132-231.6h-619.2c-18 0-33.602-14.398-33.602-33.602 0-19.199 14.398-33.602 33.602-33.602h619.2c18 0 33.602 14.398 33.602 33.602s-15.602 33.602-33.602 33.602z" fill="#84f486"/>
</svg>
