<?xml version="1.0" encoding="UTF-8"?>
<svg width="1200pt" height="1200pt" version="1.1" viewBox="0 0 1200 1200" xmlns="http://www.w3.org/2000/svg">
 <g fill="#f4e584">
  <path d="m492.52 600c0-59.27 48.227-107.5 107.5-107.5 16.57 0 30-13.43 30-30 0-16.57-13.43-30-30-30-92.352 0-167.5 75.145-167.5 167.5s75.145 167.5 167.5 167.5c92.352 0 167.48-75.145 167.48-167.5 0-16.57-13.43-30-30-30-16.57 0-30 13.43-30 30 0 59.27-48.227 107.5-107.48 107.5-59.27 0-107.5-48.227-107.5-107.5z"/>
  <path d="m600.01 810.62c-116.14 0-210.62-94.488-210.62-210.62s94.488-210.62 210.62-210.62c16.57 0 30-13.43 30-30s-13.43-30-30-30c-149.22 0-270.62 121.41-270.62 270.62 0 149.23 121.4 270.62 270.62 270.62 149.22 0 270.61-121.39 270.61-270.62 0-16.57-13.43-30-30-30s-30 13.43-30 30c0 116.14-94.477 210.62-210.61 210.62z"/>
  <path d="m600.01 913.75c-173 0-313.75-140.75-313.75-313.75 0-173 140.75-313.75 313.75-313.75 16.57 0 30-13.43 30-30 0-16.57-13.43-30-30-30-206.09 0-373.75 167.66-373.75 373.75s167.66 373.75 373.75 373.75c206.07 0 373.74-167.66 373.74-373.75 0-16.57-13.43-30-30-30-16.57 0-30 13.43-30 30 0 173-140.75 313.75-313.74 313.75z"/>
  <path d="m600.01 123.13c-262.95 0-476.87 213.92-476.87 476.87s213.93 476.87 476.87 476.87c262.95 0 476.86-213.92 476.86-476.87 0-16.57-13.43-30-30-30-16.57 0-30 13.43-30 30 0 229.86-187.01 416.87-416.86 416.87-229.86 0-416.87-187.01-416.87-416.87s187.01-416.87 416.87-416.87c16.57 0 30-13.43 30-30 0-16.574-13.426-30-30-30z"/>
  <path d="m1150 570c-16.57 0-30 13.43-30 30 0 286.73-233.27 520-520 520s-520-233.27-520-520 233.27-520 520-520c16.57 0 30-13.43 30-30 0-16.57-13.43-30-30-30-319.81 0-580 260.18-580 580s260.18 580 580 580 580-260.18 580-580c0-16.57-13.43-30-30-30z"/>
 </g>
</svg>
