<?xml version="1.0" encoding="UTF-8"?>
<svg width="1200pt" height="1200pt" version="1.1" viewBox="0 0 1200 1200" xmlns="http://www.w3.org/2000/svg">
 <g fill="#f4848e">
  <path d="m1096.8 717.6c-15.602-14.398-30-31.199-45.602-50.398-9.6016-10.801-19.199-22.801-30-34.801-20.398-22.801-26.398-58.801-16.801-94.801v-1.1992c7.1992-27.602 8.3984-45.602 9.6016-58.801 24-330-320.4-428.4-345.6-434.4-170.4-40.801-342 13.199-459.6 142.8-56.398 62.398-100.8 136.8-115.2 219.6-43.199 265.2 146.4 349.2 146.4 349.2-62.398-66-100.8-154.8-102-253.2-2.3984-206.4 164.4-379.2 370.8-381.6 210-2.3984 381.6 166.8 381.6 376.8 0 189.6-139.2 346.8-320.4 373.2-44.398 7.1992-88.801 21.602-128.4 43.199-99.602 54-172.8 147.6-201.6 258h500.4v-18c1.1992-28.801 26.398-50.398 55.199-48 73.199 6 164.4 14.398 202.8-31.199 16.801-20.398 20.398-48 12-82.801-1.1992-2.3984-1.1992-6-2.3984-8.3984-3.6016-12 1.1992-25.199 12-31.199 15.602-9.6016 16.801-20.398 15.602-27.602-1.1992-8.3984-6-13.199-9.6016-16.801 10.801-9.6016 30-27.602 16.801-45.602-16.801-22.801-12-38.398-7.1992-49.199v-1.1992c0-1.1992 0-1.1992 1.1992-2.3984 1.1992 0 3.6016-1.1992 7.1992-1.1992 6-1.1992 14.398-3.6016 25.199-7.1992 25.199-7.1992 42-21.602 45.602-39.602 1.1992-14.406-4.8008-31.203-18-43.203z"/>
  <path d="m265.2 468v52.801c0 3.6016 21.602 6 52.801 8.3984 4.8008 27.602 15.602 54 31.199 75.602-19.199 24-32.398 40.801-31.199 43.199l37.199 38.398c2.3984 2.3984 19.199-10.801 43.199-31.199 22.801 15.602 48 26.398 75.602 31.199 2.3984 30 6 52.801 8.3984 52.801h52.801c3.6016 0 6-21.602 8.3984-52.801 27.602-4.8008 54-15.602 75.602-31.199 24 20.398 40.801 33.602 43.199 31.199l37.199-38.398c2.3984-2.3984-10.801-20.398-31.199-43.199 15.602-22.801 26.398-48 31.199-75.602 30-2.3984 52.801-6 52.801-8.3984v-52.801c0-3.6016-21.602-6-52.801-8.3984-4.8008-27.602-15.602-54-31.199-75.602 19.199-24 32.398-40.801 31.199-43.199l-37.199-38.398c-2.3984-2.3984-19.199 10.801-43.199 31.199-22.801-15.602-48-26.398-75.602-31.199-2.3984-30-6-52.801-8.3984-52.801h-52.801c-3.6016 0-6 21.602-8.3984 52.801-27.602 4.8008-54 15.602-75.602 31.199-24-20.398-40.801-33.602-43.199-31.199l-37.199 38.398c-2.3984 2.3984 10.801 20.398 31.199 43.199-15.602 22.801-26.398 48-31.199 75.602-31.199 2.3984-52.801 4.7969-52.801 8.3984z"/>
 </g>
</svg>
