<?xml version="1.0" encoding="UTF-8"?>
<svg width="1200pt" height="1200pt" version="1.1" viewBox="0 0 1200 1200" xmlns="http://www.w3.org/2000/svg">
 <g fill="#84f4ca">
  <path d="m113.52 884.99c141.38-0.54297 281.12 30.195 409.22 90.016h-288.37c-6.6992 0-12.887 3.5703-16.238 9.375-3.3477 5.8008-3.3477 12.945 0 18.75 3.3516 5.8008 9.5391 9.375 16.238 9.375h731.25c6.6992 0 12.887-3.5742 16.238-9.375 3.3477-5.8047 3.3477-12.949 0-18.75-3.3516-5.8047-9.5391-9.375-16.238-9.375h-288.41c128.14-59.695 267.84-90.426 409.2-90.016 5.1406 0.27344 10.172-1.5742 13.906-5.1133 3.7383-3.543 5.8594-8.4609 5.8594-13.609v-526.89c-0.042969-9.2578-3.5078-18.176-9.7305-25.031-6.2266-6.8555-14.766-11.168-23.977-12.102-7.3789-0.80469-14.918-1.2266-22.477-1.5977v37.461c6.2734 0.32422 12.559 0.62109 18.688 1.2734 0 0 0 507.74-0.22266 507.74l-0.003907-0.003906c-164.05 2.8125-324.91 45.793-468.49 125.17-143.66-79.414-304.59-122.39-468.71-125.17l0.27344-507.6c6.0547-0.66016 12.273-0.96094 18.477-1.3008v-37.578c-7.5781 0.37109-15.141 0.79297-22.535 1.5977v0.003906c-9.2148 0.93359-17.758 5.2422-23.984 12.098s-9.6953 15.773-9.7383 25.035v526.88c0.070312 5.1289 2.2109 10.012 5.9336 13.539 3.7227 3.5273 8.7148 5.3984 13.84 5.1875z"/>
  <path d="m506.52 475.77 84.375 46.875c5.6875 3.0508 12.523 3.0508 18.211 0l84.375-46.875c2.9219-1.6211 5.3594-3.9961 7.0547-6.8789 1.6953-2.8828 2.5898-6.1641 2.5898-9.5078v-93.75c0-3.3438-0.89453-6.625-2.5898-9.5078-1.6953-2.8828-4.1328-5.2578-7.0547-6.8789l-84.375-46.875c-5.6602-3.1523-12.551-3.1523-18.211 0l-84.375 46.875c-2.9219 1.6211-5.3594 3.9961-7.0547 6.8789-1.6953 2.8828-2.5898 6.1641-2.5898 9.5078v93.75c0 3.3438 0.89453 6.625 2.5898 9.5078 1.6953 2.8828 4.1328 5.2578 7.0547 6.8789zm27.855-99.105 65.625-36.457 65.625 36.457v71.688l-65.625 36.457-65.625-36.457z"/>
  <path d="m539.46 232.09 51.562 28.125c5.6133 2.9766 12.34 2.9766 17.953 0l51.562-28.125c2.957-1.6133 5.4258-3.9961 7.1445-6.8906 1.7188-2.8984 2.6289-6.2031 2.6289-9.5703v-56.25c0-3.3711-0.91016-6.6758-2.6289-9.5742-1.7188-2.8945-4.1875-5.2734-7.1445-6.8867l-51.562-28.125c-5.5938-3.0586-12.359-3.0586-17.953 0l-51.562 28.125c-2.957 1.6133-5.4258 3.9922-7.1445 6.8867-1.7188 2.8984-2.6289 6.2031-2.6289 9.5742v56.25c0 3.3672 0.91016 6.6719 2.6289 9.5703 1.7188 2.8945 4.1875 5.2773 7.1445 6.8906zm27.727-61.578 32.812-17.898 32.812 17.898v33.984l-32.812 17.898-32.812-17.898z"/>
  <path d="m422.27 480.41-51.562 28.125c-2.957 1.6133-5.4258 3.9961-7.1445 6.8906-1.7188 2.8984-2.6289 6.2031-2.6289 9.5703v56.25c0 3.3711 0.91016 6.6758 2.6289 9.5703 1.7188 2.8984 4.1875 5.2773 7.1445 6.8906l51.562 28.125c5.6211 2.957 12.332 2.957 17.953 0l51.562-28.125c2.957-1.6133 5.4258-3.9922 7.1445-6.8867 1.7188-2.8984 2.6289-6.2031 2.6289-9.5742v-56.25c0-3.3672-0.91016-6.6719-2.6289-9.5703-1.7188-2.8945-4.1875-5.2773-7.1445-6.8906l-51.562-28.125c-5.5938-3.0586-12.359-3.0586-17.953 0zm41.789 89.703-32.812 17.898-32.812-17.898v-33.984l32.812-17.898 32.812 17.898z"/>
  <path d="m205.68 807.22c2.1836 0.0625 220.4 7.918 384.51 108.75 3.1602 1.9023 6.8047 2.8438 10.488 2.7188 3.6875-0.125 7.2578-1.3125 10.281-3.4219 163.72-100.01 381.19-107.98 383.37-108.05 4.8672-0.15234 9.4844-2.1953 12.875-5.6914 3.3906-3.5 5.2891-8.1797 5.2891-13.051v-507.27c-0.10938-9.6445-3.9492-18.871-10.715-25.746-6.7617-6.875-15.922-10.863-25.562-11.133-25.414-1.0703-50.871-0.55078-76.219 1.5508v37.523c24.93-2.2812 49.977-3.0156 74.996-2.1953v489.52c-53.883 3.7695-215.89 21.055-356.25 96.852v-308.39c-12.109 4.4219-25.391 4.4219-37.5 0v308.39c-140.35-75.785-302.34-93.082-356.23-96.844l0.39453-488.95c24.863-1.0742 49.766-0.69922 74.586 1.1172v-37.648c-25.363-1.7422-50.809-2.0547-76.207-0.93359-9.6445 0.26562-18.809 4.2578-25.57 11.133-6.7656 6.875-10.605 16.102-10.719 25.746v507.27c0 4.875 1.8984 9.5547 5.293 13.055 3.3906 3.4961 8.0117 5.5352 12.883 5.6875z"/>
  <path d="m346.8 320.88 56.25 32.812c5.8633 3.3164 13.035 3.3164 18.898 0l56.25-32.812c5.7578-3.3594 9.3008-9.5273 9.3008-16.195v-65.625c0-6.668-3.543-12.832-9.3008-16.195l-56.25-32.812c-2.8672-1.6719-6.1289-2.5547-9.4492-2.5547s-6.582 0.88281-9.4492 2.5547l-56.25 32.812c-5.7578 3.3633-9.3008 9.5273-9.3008 16.195v65.625c0 6.668 3.543 12.836 9.3008 16.195zm28.199-71.051 37.5-21.871 37.5 21.871v44.094l-37.5 21.871-37.5-21.871z"/>
  <path d="m698.44 581.24c0 3.3711 0.91016 6.6758 2.6289 9.5703 1.7188 2.8984 4.1875 5.2773 7.1445 6.8906l51.562 28.125c5.625 2.9297 12.328 2.9297 17.953 0l51.562-28.125c2.957-1.6133 5.4258-3.9922 7.1445-6.8867 1.7188-2.8984 2.6289-6.2031 2.6289-9.5742v-56.25c0-3.3672-0.91016-6.6719-2.6289-9.5703-1.7188-2.8945-4.1875-5.2773-7.1445-6.8906l-51.562-28.125c-5.5938-3.0586-12.359-3.0586-17.953 0l-51.562 28.125c-2.957 1.6133-5.4258 3.9922-7.1445 6.8906s-2.6289 6.2031-2.6289 9.5703zm37.5-45.117 32.812-17.898 32.812 17.898v33.984l-32.812 17.898-32.812-17.898z"/>
  <path d="m721.8 320.89 56.25 32.812c5.8672 3.3086 13.035 3.3086 18.898 0l56.25-32.812c5.7578-3.3594 9.3008-9.5273 9.3008-16.195v-65.625c0-6.668-3.543-12.836-9.3008-16.195l-56.25-32.812c-2.8672-1.6719-6.1289-2.5547-9.4492-2.5547s-6.582 0.88281-9.4492 2.5547l-56.25 32.812c-5.7578 3.3594-9.3008 9.5273-9.3008 16.195v65.625c0 6.668 3.543 12.836 9.3008 16.195zm28.199-71.055 37.5-21.871 37.5 21.871v44.094l-37.5 21.871-37.5-21.871z"/>
  <path d="m1181.2 1050h-1162.5c-6.6992 0-12.887 3.5703-16.238 9.375-3.3477 5.8008-3.3477 12.945 0 18.75 3.3516 5.8008 9.5391 9.375 16.238 9.375h1162.5c6.6992 0 12.887-3.5742 16.238-9.375 3.3477-5.8047 3.3477-12.949 0-18.75-3.3516-5.8047-9.5391-9.375-16.238-9.375z"/>
 </g>
</svg>
