<?xml version="1.0" encoding="UTF-8"?>
<svg width="1200pt" height="1200pt" version="1.1" viewBox="0 0 1200 1200" xmlns="http://www.w3.org/2000/svg">
 <g fill="#ec84f4">
  <path d="m768 684c-27.961-9.8398-48-36.48-48-67.801 0-6.3594 0.83984-12.602 2.5195-18.602l-80.281-55.199c-11.879 8.6406-26.52 13.801-42.238 13.801-15.84 0-30.359-5.1602-42.359-13.801l-80.281 55.199c1.6797 6 2.6406 12.238 2.6406 18.602 0 31.32-20.16 57.961-48 67.801v56.398c27.84 9.9609 48 36.602 48 67.801 0 6.4805-0.96094 12.719-2.6406 18.719l80.398 55.199c11.879-8.6406 26.398-13.922 42.238-13.922 15.719 0 30.359 5.2812 42.238 13.922l80.281-55.199c-1.6758-6.1172-2.5156-12.359-2.5156-18.719 0-31.199 20.039-57.84 48-67.801z"/>
  <path d="m890.76 497.88-290.76-382.08-290.76 382.08c-110.04 144.72-96.121 350.76 32.398 479.4 69 69 160.8 106.92 258.36 106.92s189.24-37.922 258.24-106.92c128.64-128.52 142.45-334.68 32.527-479.4zm-26.762 310.32c0 39.719-32.398 72-72 72-15.84 0-30.359-5.1602-42.359-13.801l-80.281 55.199c1.6797 6 2.6406 12.238 2.6406 18.602 0 39.719-32.398 72-72 72-39.719 0-72-32.281-72-72 0-6.3594 0.83984-12.602 2.5195-18.602l-80.281-55.199c-11.879 8.6406-26.52 13.801-42.238 13.801-39.719 0-72-32.281-72-72 0-31.199 20.039-57.84 48-67.801v-56.398c-27.961-9.8398-48-36.48-48-67.801 0-39.602 32.281-72 72-72 15.719 0 30.359 5.2812 42.238 13.922l80.281-55.199c-1.6797-6.1211-2.5195-12.363-2.5195-18.723 0-39.602 32.281-72 72-72 39.602 0 72 32.398 72 72 0 6.4805-0.96094 12.719-2.6406 18.719l80.281 55.199c11.879-8.6406 26.52-13.922 42.359-13.922 39.602 0 72 32.398 72 72 0 31.32-20.16 57.961-48 67.801v56.398c27.84 9.8438 48 36.605 48 67.805z"/>
  <path d="m432 616.2c0 13.254-10.746 24-24 24s-24-10.746-24-24c0-13.254 10.746-24 24-24s24 10.746 24 24"/>
  <path d="m816 616.2c0 13.254-10.746 24-24 24s-24-10.746-24-24c0-13.254 10.746-24 24-24s24 10.746 24 24"/>
  <path d="m624 484.2c0 13.254-10.746 24-24 24s-24-10.746-24-24c0-13.254 10.746-24 24-24s24 10.746 24 24"/>
  <path d="m624 940.2c0 13.254-10.746 24-24 24s-24-10.746-24-24c0-13.254 10.746-24 24-24s24 10.746 24 24"/>
  <path d="m432 808.2c0 13.254-10.746 24-24 24s-24-10.746-24-24c0-13.254 10.746-24 24-24s24 10.746 24 24"/>
  <path d="m816 808.2c0 13.254-10.746 24-24 24s-24-10.746-24-24c0-13.254 10.746-24 24-24s24 10.746 24 24"/>
 </g>
</svg>
