<?xml version="1.0" encoding="UTF-8"?>
<svg width="1200pt" height="1200pt" version="1.1" viewBox="0 0 1200 1200" fill="#000000" xmlns="http://www.w3.org/2000/svg">
 <path d="m366.91 871.41c4.1914 7.4375 12.043 11.984 20.547 11.984h307.01v23.617c0 13.047 10.566 23.617 23.617 23.617 13.047 0 23.617-10.566 23.617-23.617v-590.4h70.848c13.047 0 23.617-10.566 23.617-23.617 0-13.047-10.566-23.617-23.617-23.617h-188.93c-13.047 0-23.617 10.566-23.617 23.617 0 13.047 10.566 23.617 23.617 23.617h70.848v283.39h-307.01c-8.5 0-16.355 4.5469-20.547 11.984-4.1914 7.4102-4.0742 16.5 0.29688 23.793l63.559 105.92-63.559 105.92c-4.3672 7.293-4.4883 16.383-0.29688 23.793z"/>
</svg>
