<svg height='100px' width='100px'  fill="#000000" xmlns:dc="http://purl.org/dc/elements/1.1/" xmlns:cc="http://creativecommons.org/ns#" xmlns:rdf="http://www.w3.org/1999/02/22-rdf-syntax-ns#" xmlns:svg="http://www.w3.org/2000/svg" xmlns="http://www.w3.org/2000/svg" xmlns:sodipodi="http://sodipodi.sourceforge.net/DTD/sodipodi-0.dtd" xmlns:inkscape="http://www.inkscape.org/namespaces/inkscape" viewBox="0 0 16.933333 16.933333" version="1.1" x="0px" y="0px"><g transform="translate(0,-280.06667)" style="" display="inline"><path style="display:inline;opacity:1;vector-effect:none;fill:#000000;fill-opacity:1;fill-rule:evenodd;stroke-width:0.99999994;stroke-linecap:butt;stroke-linejoin:miter;stroke-miterlimit:4;stroke-dasharray:none;stroke-dashoffset:0;stroke-opacity:1" d="m 312,1.0097656 c -1.45452,0 -2.79847,0.7941952 -3.5,2.0683594 -0.56948,1.0343361 -0.63621,2.2548553 -0.22852,3.3359375 -2.51321,2.5875989 -4.82801,5.2100575 -5.73242,8.0878905 -0.48173,1.532871 -0.52829,3.168579 0.0859,4.755859 0.36509,0.943343 0.97744,1.854152 1.79492,2.742188 H 301 c -1.06048,0 -2.07825,0.422002 -2.82812,1.171875 C 297.42189,23.921748 297,24.93952 297,26 v 2 c 0,1.06048 0.42189,2.078252 1.17188,2.828125 C 298.92175,31.577998 299.93952,32 301,32 h 2.96875 c -0.3247,12.915049 -6.7696,18.281921 -11.17578,20.513672 C 291.0848,53.353733 290,55.09644 290,57 v 2 c 0,1.06048 0.42189,2.078252 1.17188,2.828125 C 291.92175,62.577998 292.93952,63 294,63 h 36 c 1.06048,0 2.07825,-0.422002 2.82812,-1.171875 C 333.57811,61.078252 334,60.06048 334,59 v -2 c 0,-1.90356 -1.0848,-3.646267 -2.79297,-4.486328 C 326.80085,50.281921 320.35595,44.915049 320.03125,32 H 323 c 1.06048,0 2.07825,-0.422002 2.82812,-1.171875 C 326.57811,30.078252 327,29.06048 327,28 v -2 c 0,-1.06048 -0.42189,-2.078252 -1.17188,-2.828125 C 325.07825,22.422002 324.06048,22 323,22 h -3.41992 c 0.81748,-0.888036 1.42983,-1.798845 1.79492,-2.742188 0.61427,-1.58728 0.56771,-3.222988 0.0859,-4.755859 -0.9044,-2.877922 -3.21912,-5.5002143 -5.73242,-8.0878905 C 316.13621,5.3329803 316.06948,4.1124611 315.5,3.078125 314.79847,1.8039608 313.45452,1.0097656 312,1.0097656 Z" transform="matrix(0.26458333,0,0,0.26458333,-74.083329,280.06667)"></path></g></svg>