<svg height='100px' width='100px'  fill="#000000" xmlns:dc="http://purl.org/dc/elements/1.1/" xmlns:cc="http://creativecommons.org/ns#" xmlns:rdf="http://www.w3.org/1999/02/22-rdf-syntax-ns#" xmlns:svg="http://www.w3.org/2000/svg" xmlns="http://www.w3.org/2000/svg" xmlns:sodipodi="http://sodipodi.sourceforge.net/DTD/sodipodi-0.dtd" xmlns:inkscape="http://www.inkscape.org/namespaces/inkscape" viewBox="0 0 16.933333 16.933333" version="1.1" x="0px" y="0px"><g transform="translate(0,-280.06667)" style="" display="inline"><path style="display:inline;opacity:1;vector-effect:none;fill:#000000;fill-opacity:1;fill-rule:evenodd;stroke-width:0.99999994;stroke-linecap:butt;stroke-linejoin:miter;stroke-miterlimit:4;stroke-dasharray:none;stroke-dashoffset:0;stroke-opacity:1" d="m 167,1 c -0.554,0 -1,0.4459997 -1,1 v 5 h -5 c -0.554,0 -1,0.4459994 -1,1 v 8 c 0,0.554 0.446,1 1,1 h 5 v 5 h -6 c -1.06048,0 -2.07825,0.422002 -2.82812,1.171875 C 156.42193,23.921748 156,24.93952 156,26 v 2 c 0,1.06048 0.42193,2.078252 1.17188,2.828125 C 157.92175,31.577998 158.93952,32 160,32 h 2.96875 c -0.3247,12.915049 -6.7696,18.281921 -11.17578,20.513672 C 150.0848,53.353733 149,55.09644 149,57 v 2 c 0,1.06048 0.42193,2.078252 1.17188,2.828125 C 150.92175,62.577998 151.93952,63 153,63 h 36 c 1.06048,0 2.07825,-0.422002 2.82812,-1.171875 C 192.57807,61.078252 193,60.06048 193,59 v -2 c 0,-1.90356 -1.0848,-3.646267 -2.79297,-4.486328 C 185.80085,50.281921 179.35595,44.915049 179.03125,32 H 182 c 1.06048,0 2.07825,-0.422002 2.82812,-1.171875 C 185.57807,30.078252 186,29.06048 186,28 v -2 c 0,-1.06048 -0.42193,-2.078252 -1.17188,-2.828125 C 184.07825,22.422002 183.06048,22 182,22 h -6 v -5 h 5 c 0.554,0 1,-0.446 1,-1 V 8 c 0,-0.554 -0.446,-1 -1,-1 h -5 V 2 c 0,-0.554 -0.446,-1 -1,-1 z" transform="matrix(0.26458333,0,0,0.26458333,-36.777081,280.06667)"></path></g></svg>