<svg height='100px' width='100px'  fill="#000000" xmlns:dc="http://purl.org/dc/elements/1.1/" xmlns:cc="http://creativecommons.org/ns#" xmlns:rdf="http://www.w3.org/1999/02/22-rdf-syntax-ns#" xmlns:svg="http://www.w3.org/2000/svg" xmlns="http://www.w3.org/2000/svg" xmlns:sodipodi="http://sodipodi.sourceforge.net/DTD/sodipodi-0.dtd" xmlns:inkscape="http://www.inkscape.org/namespaces/inkscape" viewBox="0 0 16.933333 16.933333" version="1.1" x="0px" y="0px"><g transform="translate(0,-280.06667)" style="" display="inline"><path style="display:inline;opacity:1;vector-effect:none;fill:#000000;fill-opacity:1;fill-rule:evenodd;stroke-width:0.99999994;stroke-linecap:butt;stroke-linejoin:miter;stroke-miterlimit:4;stroke-dasharray:none;stroke-dashoffset:0;stroke-opacity:1" d="M 32,1 C 26.364811,0.99980221 21.479721,4.9299752 20.277344,10.429688 19.327234,14.775514 20.884079,19.181768 24.103516,22 H 20 c -1.06048,0 -2.078252,0.422002 -2.828125,1.171875 C 16.422002,23.921748 16,24.93952 16,26 v 2 c 0,1.06048 0.422002,2.078252 1.171875,2.828125 C 17.921748,31.577998 18.93952,32 20,32 h 3.96875 C 23.644053,44.914985 17.199136,50.281928 12.792969,52.513672 11.0848,53.353733 10,55.09644 10,57 v 2 c 0,1.06048 0.422002,2.078252 1.171875,2.828125 C 11.921748,62.577998 12.93952,63 14,63 h 36 c 1.06048,0 2.078252,-0.422002 2.828125,-1.171875 C 53.577998,61.078252 54,60.06048 54,59 V 57 C 54,55.09644 52.9152,53.353733 51.207031,52.513672 46.800864,50.281928 40.355947,44.914985 40.03125,32 H 44 c 1.06048,0 2.078252,-0.422002 2.828125,-1.171875 C 47.577998,30.078252 48,29.06048 48,28 V 26 C 48,24.93952 47.577998,23.921748 46.828125,23.171875 46.078252,22.422002 45.06048,22 44,22 H 39.896484 C 43.115921,19.181768 44.672766,14.775514 43.722656,10.429688 42.520279,4.9299752 37.635189,0.99980221 32,1 Z" transform="matrix(0.26458333,0,0,0.26458333,10e-8,280.06667)"></path></g></svg>