<svg height='100px' width='100px'  fill="#000000" xmlns:dc="http://purl.org/dc/elements/1.1/" xmlns:cc="http://creativecommons.org/ns#" xmlns:rdf="http://www.w3.org/1999/02/22-rdf-syntax-ns#" xmlns:svg="http://www.w3.org/2000/svg" xmlns="http://www.w3.org/2000/svg" xmlns:sodipodi="http://sodipodi.sourceforge.net/DTD/sodipodi-0.dtd" xmlns:inkscape="http://www.inkscape.org/namespaces/inkscape" viewBox="0 0 16.933333 16.933333" version="1.1" x="0px" y="0px"><g transform="translate(0,-280.06667)" style="" display="inline"><path style="color:#000000;font-style:normal;font-variant:normal;font-weight:normal;font-stretch:normal;font-size:medium;line-height:normal;font-family:sans-serif;font-variant-ligatures:normal;font-variant-position:normal;font-variant-caps:normal;font-variant-numeric:normal;font-variant-alternates:normal;font-feature-settings:normal;text-indent:0;text-align:start;text-decoration:none;text-decoration-line:none;text-decoration-style:solid;text-decoration-color:#000000;letter-spacing:normal;word-spacing:normal;text-transform:none;writing-mode:lr-tb;direction:ltr;text-orientation:mixed;dominant-baseline:auto;baseline-shift:baseline;text-anchor:start;white-space:normal;shape-padding:0;clip-rule:nonzero;display:inline;overflow:visible;visibility:visible;opacity:1;isolation:auto;mix-blend-mode:normal;color-interpolation:sRGB;color-interpolation-filters:linearRGB;solid-color:#000000;solid-opacity:1;vector-effect:none;fill:#000000;fill-opacity:1;fill-rule:evenodd;stroke:none;stroke-width:2;stroke-linecap:round;stroke-linejoin:round;stroke-miterlimit:4;stroke-dasharray:none;stroke-dashoffset:0;stroke-opacity:1;paint-order:fill markers stroke;color-rendering:auto;image-rendering:auto;shape-rendering:auto;text-rendering:auto;enable-background:accumulate" d="m 241.96289,1 c -0.35014,0.012869 -0.66801,0.2077363 -0.83789,0.5136719 l -4.51367,8.1132812 -8.125,-4.5078125 c -0.82643,-0.4572219 -1.76847,0.3791299 -1.41016,1.2519532 L 233.52148,22 H 231 c -1.06048,0 -2.07825,0.422002 -2.82812,1.171875 C 227.42189,23.921748 227,24.93952 227,26 v 2 c 0,1.06048 0.42189,2.078252 1.17188,2.828125 C 228.92175,31.577998 229.93952,32 231,32 h 2.96875 c -0.3247,12.915049 -6.7696,18.281921 -11.17578,20.513672 C 221.0848,53.353733 220,55.09644 220,57 v 2 c 0,1.06048 0.42189,2.078252 1.17188,2.828125 C 221.92175,62.577998 222.93952,63 224,63 h 36 c 1.06048,0 2.07825,-0.422002 2.82812,-1.171875 C 263.57811,61.078252 264,60.06048 264,59 v -2 c 0,-1.90356 -1.0848,-3.646267 -2.79297,-4.486328 C 256.80085,50.281921 250.35595,44.915049 250.03125,32 H 253 c 1.06048,0 2.07825,-0.422002 2.82812,-1.171875 C 256.57811,30.078252 257,29.06048 257,28 v -2 c 0,-1.06048 -0.42189,-2.078252 -1.17188,-2.828125 C 255.07825,22.422002 254.06048,22 253,22 h -2.52148 l 6.44531,-15.6289062 c 0.35831,-0.8728233 -0.58373,-1.7091751 -1.41016,-1.2519532 l -8.125,4.5078125 L 242.875,1.5136719 C 242.69223,1.1845128 242.3396,0.98592044 241.96289,1 Z" transform="matrix(0.26458333,0,0,0.26458333,-55.562494,280.06667)"></path></g></svg>