<svg height='100px' width='100px'  fill="#000000" xmlns:dc="http://purl.org/dc/elements/1.1/" xmlns:cc="http://creativecommons.org/ns#" xmlns:rdf="http://www.w3.org/1999/02/22-rdf-syntax-ns#" xmlns:svg="http://www.w3.org/2000/svg" xmlns="http://www.w3.org/2000/svg" xmlns:sodipodi="http://sodipodi.sourceforge.net/DTD/sodipodi-0.dtd" xmlns:inkscape="http://www.inkscape.org/namespaces/inkscape" viewBox="0 0 16.933333 16.933333" version="1.1" x="0px" y="0px"><g transform="translate(0,-280.06667)" style="" display="inline"><path style="display:inline;opacity:1;vector-effect:none;fill:#000000;fill-opacity:1;fill-rule:evenodd;stroke-width:0.99999994;stroke-linecap:butt;stroke-linejoin:miter;stroke-miterlimit:4;stroke-dasharray:none;stroke-dashoffset:0;stroke-opacity:1" d="m 88,71 c -0.552262,5.5e-5 -0.999945,0.447738 -1,1 l 2,16 c 5.5e-5,0.552262 0.447738,0.999945 1,1 h 3 v 3 h -3 c -1.06048,0 -2.078252,0.422002 -2.828125,1.171875 C 86.422002,93.921748 86,94.93952 86,96 v 2 c 0,1.06048 0.422002,2.07825 1.171875,2.82812 C 87.921748,101.57805 88.93952,102 90,102 h 3.96875 C 93.644053,114.91499 87.199136,120.28193 82.792969,122.51367 81.0848,123.35373 80,125.09644 80,127 v 2 c 0,1.06048 0.422002,2.07825 1.171875,2.82812 C 81.921748,132.57805 82.93952,133 84,133 h 36 c 1.06048,0 2.07825,-0.42195 2.82812,-1.17188 C 123.57805,131.07825 124,130.06048 124,129 v -2 c 0,-1.90356 -1.0848,-3.64627 -2.79297,-4.48633 C 116.80086,120.28193 110.35595,114.91499 110.03125,102 H 114 c 1.06048,0 2.07825,-0.42195 2.82812,-1.17188 C 117.57805,100.07825 118,99.06048 118,98 v -2 c 0,-1.06048 -0.42195,-2.078252 -1.17188,-2.828125 C 116.07825,92.422002 115.06048,92 114,92 h -3 v -3 h 3 c 0.55226,-5.5e-5 0.99994,-0.447738 1,-1 l 2,-16 c -6e-5,-0.552262 -0.44774,-0.999945 -1,-1 h -6 c -0.55226,5.5e-5 -0.99994,0.447738 -1,1 v 4 h -3 v -4 c -6e-5,-0.552262 -0.44774,-0.999945 -1,-1 h -6 c -0.552262,5.5e-5 -0.999945,0.447738 -1,1 v 4 h -3 v -4 c -5.5e-5,-0.552262 -0.447738,-0.999945 -1,-1 z" transform="matrix(0.26458333,0,0,0.26458333,-18.520831,261.54586)"></path></g></svg>