<svg height='100px' width='100px'  fill="#000000" xmlns="http://www.w3.org/2000/svg" xmlns:xlink="http://www.w3.org/1999/xlink" version="1.1" x="0px" y="0px" viewBox="0 0 32 32" style="enable-background:new 0 0 32 32;" xml:space="preserve"><style type="text/css">
	.st0{fill-rule:evenodd;clip-rule:evenodd;}
</style><g><g><path class="st0" d="M28.5,16.3L28.5,16.3c0,0-10.6-13.1-11.3-13.8c-0.7-0.7-1.8-0.7-2.5,0C14.1,3.2,4.4,15.3,3.7,16.1    C2.7,17.2,2,18.7,2,20.4c0,3.4,2.7,6.1,6.1,6.1c2.4,0,4.5-1.4,5.5-3.5c0.3,2.5-0.1,6.5-4.6,7h14c0,0-5.2-0.5-4.6-7    c1,2.1,3.1,3.5,5.5,3.5c3.4,0,6.1-2.7,6.1-6.1C30,18.8,29.4,17.4,28.5,16.3z"></path></g></g></svg>