<?xml version="1.0" encoding="UTF-8"?>
<svg width="1200pt" height="1200pt" version="1.1" viewBox="0 0 1200 1200" xmlns="http://www.w3.org/2000/svg">
 <g fill="#a384f4" fill-rule="evenodd">
  <path d="m585.71 77.812c4.3867-1.8008 9.2266-2.8125 14.289-2.8125s9.8984 1.0117 14.289 2.8125l0.11328 0.074219c4.4258 1.8008 8.5508 4.5 12.113 8.1016l150 150c14.625 14.625 14.625 38.398 0 53.023s-38.398 14.625-53.023 0l-85.988-85.988v434.48c0 6.5234-1.6484 12.637-4.5742 17.961-2.9258 5.3633-7.1641 10.051-12.637 13.574l-452.06 290.62 65.887 16.461c20.062 5.0234 32.289 25.387 27.262 45.488-5.0234 20.062-25.387 32.289-45.488 27.262l-150-37.5-1.2383-0.33594-1.125-0.33594-1.125-0.375-1.0859-0.41406-0.86328-0.33594-0.63672-0.26172c-2.3633-1.0859-4.6133-2.3633-6.6758-3.8242-3.75-2.6992-7.0508-6.1133-9.6758-10.199-2.8516-4.4609-4.6484-9.3008-5.4766-14.211-0.82422-4.875-0.63672-10.051 0.63672-15.188l37.5-150c5.0234-20.062 25.387-32.289 45.488-27.262 20.062 5.0234 32.289 25.387 27.262 45.488l-14.551 58.164 428.18-275.25v-414l-85.988 85.988c-14.625 14.625-38.398 14.625-53.023 0s-14.625-38.398 0-53.023l150-150 0.9375-0.89844 0.89844-0.82422 1.0859-0.89844 1.0508-0.82422 0.9375-0.71094 0.78906-0.52344 0.1875-0.11328c1.9883-1.3125 4.0508-2.4375 6.2266-3.3008l0.11328-0.074219z"/>
  <path d="m1031.8 959.66-339.56-218.29c-17.398-11.211-22.461-34.426-11.25-51.824 11.176-17.398 34.387-22.461 51.824-11.289l332.89 214.01-14.551-58.164c-5.0234-20.102 7.1992-40.461 27.262-45.488 20.102-5.0234 40.461 7.1992 45.488 27.262l37.5 150 0.22656 0.97656 0.375 1.875 0.14844 0.9375 0.11328 0.9375 0.11328 1.0859 0.074219 0.9375 0.078125 1.7969v1.3125c-0.039062 1.7617-0.1875 3.4883-0.44922 5.1758l-0.074219 0.33594c-0.82422 4.875-2.5859 9.6367-5.4375 14.023-2.5508 3.9766-5.7383 7.3125-9.375 9.9766l-0.63672 0.44922c-3.6367 2.5508-7.8359 4.5-12.414 5.6641l-150 37.5c-20.102 5.0234-40.461-7.1992-45.488-27.262-5.0234-20.102 7.1992-40.461 27.262-45.488l65.887-16.461z"/>
 </g>
</svg>
