<?xml version="1.0" encoding="UTF-8"?>
<svg width="1200pt" height="1200pt" version="1.1" viewBox="0 0 1200 1200" xmlns="http://www.w3.org/2000/svg">
 <g fill="#d6f484">
  <path d="m1007.9 586.36c30.883-17.727 56.227-43.695 73.199-74.996 16.973-31.305 24.91-66.711 22.922-102.26-1.9922-35.555-13.828-69.855-34.188-99.07-20.359-29.211-48.441-52.191-81.109-66.363-32.668-14.172-68.633-18.984-103.88-13.895-35.242 5.0898-68.379 19.879-95.699 42.715 6.5547-36.949 2.1367-75.012-12.703-109.48s-39.453-63.832-70.801-84.465c-31.344-20.633-68.051-31.629-105.58-31.629s-74.23 10.996-105.58 31.629c-31.344 20.633-55.961 49.996-70.801 84.465s-19.254 72.531-12.699 109.48c-28.738-24.016-63.867-39.102-101.07-43.402-37.203-4.3047-74.848 2.3633-108.31 19.184-33.461 16.82-61.273 43.059-80.012 75.48-18.738 32.426-27.59 69.621-25.457 107.01 2.1289 37.391 15.145 73.34 37.445 103.43 22.297 30.086 52.91 52.996 88.062 65.906-35.16 12.91-65.781 35.816-88.086 65.906-22.309 30.086-35.328 66.043-37.461 103.43-2.1328 37.395 6.7148 74.598 25.457 107.03 18.742 32.43 46.559 58.668 80.023 75.488 33.465 16.82 71.121 23.488 108.33 19.18 37.207-4.3047 72.34-19.398 101.08-43.422-6.5547 36.949-2.1406 75.012 12.699 109.48s39.457 63.832 70.801 84.465c31.348 20.633 68.051 31.629 105.58 31.629s74.234-10.996 105.58-31.629c31.348-20.633 55.961-49.996 70.801-84.465s19.258-72.527 12.703-109.48c8.3633 6.9883 17.305 13.25 26.727 18.727l6-10.391-6 10.391c30.789 17.871 65.938 26.832 101.52 25.879 35.586-0.94922 70.207-11.77 99.996-31.258 29.789-19.488 53.578-46.871 68.707-79.094s21-68.016 16.965-103.38c-4.0352-35.367-17.824-68.918-39.824-96.906-22-27.984-51.344-49.305-84.762-61.578 10.176-3.7383 20.02-8.332 29.422-13.73zm-596.92 46.113c-16.754-13.906-35.754-24.855-56.188-32.383 20.434-7.5234 39.434-18.477 56.191-32.383-3.9219 21.41-3.9219 43.355-0.003906 64.766zm66.527 115.42c16.789 13.859 35.816 24.758 56.266 32.23-20.469 7.4766-39.512 18.391-56.312 32.273 3.7812-21.336 3.7969-43.164 0.046875-64.504zm3.75-28.984c-27.492-27.488-44.598-63.656-48.406-102.35-3.8125-38.688 5.9102-77.5 27.508-109.82 21.598-32.324 53.734-56.16 90.938-67.445 37.199-11.281 77.164-9.3203 113.08 5.5586 35.918 14.875 65.562 41.746 83.887 76.031 18.324 34.285 24.195 73.863 16.609 111.99-7.582 38.129-28.152 72.445-58.207 97.109-30.051 24.66-67.723 38.137-106.6 38.137-22.07 0.03125-43.93-4.3008-64.316-12.746-20.391-8.4453-38.91-20.84-54.492-36.469zm-3.75-266.62c3.75-21.336 3.7344-43.164-0.046875-64.496 16.801 13.879 35.844 24.789 56.312 32.27-20.449 7.4688-39.477 18.367-56.266 32.23zm188.86-32.23 0.003906 0.003906c20.469-7.4805 39.512-18.395 56.312-32.273-3.7773 21.332-3.793 43.164-0.046875 64.504-16.789-13.863-35.816-24.762-56.266-32.23zm56.27 327.83c-3.7461 21.34-3.7344 43.168 0.046875 64.5-16.801-13.879-35.844-24.793-56.312-32.27 20.449-7.4688 39.477-18.367 56.266-32.23zm69.465-147.79h0.003906c-0.066406-10.859-1.0469-21.695-2.9414-32.387 16.754 13.902 35.754 24.855 56.184 32.383-20.43 7.5234-39.426 18.473-56.18 32.379 1.8906-10.688 2.8711-21.52 2.9375-32.375zm-310.84-478.88c27.488-27.488 63.656-44.594 102.34-48.406 38.688-3.8086 77.5 5.9102 109.82 27.508 32.324 21.598 56.16 53.734 67.445 90.934s9.3203 77.164-5.5547 113.08c-14.875 35.918-41.746 65.562-76.027 83.891-34.285 18.324-73.863 24.195-111.99 16.613-38.129-7.582-72.449-28.152-97.109-58.203-24.664-30.047-38.145-67.719-38.145-106.59-0.035156-22.07 4.2969-43.934 12.742-64.324 8.4453-20.391 20.84-38.91 36.473-54.496zm-277.03 444.36c-35.273-20.367-61.945-52.855-75.055-91.418-13.109-38.566-11.762-80.578 3.7891-118.22 15.547-37.648 44.246-68.363 80.746-86.434 36.504-18.07 78.328-22.266 117.7-11.805 39.363 10.461 73.586 34.867 96.305 68.672 22.719 33.809 32.379 74.719 27.191 115.12-5.1914 40.398-24.879 77.539-55.402 104.5-30.523 26.969-69.805 41.934-110.54 42.105-0.29297 0-0.58984-0.027344-0.88281-0.027344-0.29688 0-0.59766 0.027344-0.89453 0.027344-29.145-0.14453-57.742-7.9062-82.957-22.52zm168.04 360.07c-29.812 17.207-64.191 24.848-98.484 21.883-34.297-2.9648-66.852-16.391-93.27-38.465-26.414-22.07-45.414-51.723-54.426-84.941-9.0156-33.223-7.6094-68.41 4.0273-100.81 11.637-32.395 32.941-60.434 61.035-80.328 28.094-19.891 61.617-30.676 96.039-30.895 0.29687 0 0.59375 0.027344 0.89453 0.027344 0.29297 0 0.58984-0.027344 0.88281-0.027344 36.93 0.14844 72.785 12.465 102.02 35.035 29.23 22.574 50.211 54.152 59.695 89.844 9.4805 35.695 6.9375 73.52-7.2344 107.62s-39.188 62.59-71.176 81.051zm346.62 153.32v-0.003906c-27.488 27.488-63.656 44.594-102.34 48.406-38.688 3.8086-77.5-5.9141-109.82-27.512-32.324-21.598-56.156-53.734-67.441-90.934-11.285-37.203-9.3203-77.164 5.5586-113.08 14.875-35.914 41.746-65.562 76.031-83.887 34.285-18.324 73.859-24.191 111.99-16.609 38.125 7.5859 72.445 28.156 97.105 58.207 24.66 30.051 38.137 67.723 38.137 106.6 0.03125 22.07-4.3008 43.926-12.75 64.316-8.4453 20.391-20.836 38.91-36.465 54.492zm277.02-444.36c38.594 22.281 66.754 58.984 78.289 102.03 11.535 43.047 5.5 88.91-16.781 127.5-22.281 38.598-58.98 66.758-102.03 78.293-43.047 11.535-88.91 5.4961-127.5-16.785-31.98-18.465-56.988-46.949-71.156-81.051-14.168-34.102-16.707-71.922-7.2266-107.61 9.4805-35.691 30.457-67.266 59.68-89.84 29.223-22.574 65.07-34.891 102-35.051 0.29297 0 0.58984 0.027344 0.88281 0.027344 0.29688 0 0.59766-0.027344 0.89453-0.027344h-0.003906c29.141 0.14453 57.738 7.9062 82.953 22.512zm0-69.031v0.003907c-25.215 14.605-53.812 22.371-82.953 22.516-0.29688 0-0.59375-0.027344-0.89453-0.027344-0.29297 0-0.58984 0.027344-0.88281 0.027344h0.003907c-40.754-0.16406-80.059-15.129-110.6-42.109-30.543-26.977-50.246-64.133-55.441-104.55-5.1953-40.418 4.4688-81.348 27.195-115.18 22.727-33.828 56.969-58.246 96.355-68.711 39.383-10.469 81.23-6.2695 117.75 11.809 36.52 18.082 65.23 48.812 80.785 86.48 15.559 37.664 16.902 79.699 3.7812 118.28-13.121 38.586-39.809 71.086-75.102 91.461l6 10.395z"/>
  <path d="m906.69 685.22-111.3 192.81h232.98l-116.49-201.81zm-90.516 180.81 95.711-165.81 95.711 165.81z"/>
  <path d="m386.11 476.56 0.011719-113.01-97.863-56.527-3 1.7344-94.887 54.793 0.023437 113 97.863 56.527zm-97.848-56.891m0-6.9297-79.543-45.926 79.539-45.934 79.527 45.934zm6 103.02v-92.625l79.863-46.117-0.011719 92.613zm-91.887-138.75 79.887 46.125v92.629l-79.867-46.133z"/>
  <path d="m386.07 832.81v-109.15l-94.445-54.539c-0.26953-0.1875-0.55469-0.35156-0.85156-0.49219l-2.5703-1.4844-2.6719 1.543c-0.16406 0.085938-0.30859 0.16797-0.46484 0.26953l-94.738 54.703 0.023438 113.02 97.852 56.527 97.863-56.527v-3.2539l0.003907 0.003906c0.011719-0.20312 0.011719-0.40625 0-0.61328zm-12-22.23-69.281-120 69.281 40.008zm-4.3086 16.535-162.99 0.003906 81.496-141.16zm-97.961-136.64-69.449 120.3-0.015625-80.188zm-53.227 148.64h139.27l-69.641 40.227z"/>
  <path d="m659.54 881.43-21.102-12.148h-76.801l-21.074 12.203-38.406 66.512 0.027344 24.348 38.402 66.508 21.102 12.152h76.797l21.078-12.191 38.406-66.512-0.039062-24.355zm25.336 67.898-25.422 38.172-53.395-30.828v-61.637l45.758-2.9766zm-51.723 89.676h-66.129l-20.348-41.113 53.383-30.824 53.398 30.832zm-33.098-155.6-33.012-2.1211h65.594zm-51.766 8.6992 45.77 2.9414v61.629l-53.391 30.828-25.449-38.129zm-32.773 79.328 18.078 27.09 14.621 29.547zm136.57 56.34 14.449-29.25 18.367-27.578z"/>
  <path d="m1009.8 363.55-97.863-56.527-3 1.7344-94.887 54.793 0.023438 113 97.863 56.527 97.852-56.527zm-12.012 99.164-27.562-15.922 27.57-54.586zm-135.91-26.176-32.34-64.047 71.641-4.0195zm50.047-62.68 40 69.293h-80.008zm39.293 81.293-39.297 60.043-39.297-60.043zm-28.551-86.68 71.645 4.0234-32.348 64.047zm-4.7422-12.285 0.007813-31.84 61.059 35.27zm-12 0-61.059 3.4258 61.066-35.266zm-52.316 90.605-27.535 15.887-0.015624-70.461zm6 10.391 33.484 51.156-61.039-35.258zm104.62 0.003906 27.551 15.914-61.047 35.27z"/>
  <path d="m600.06 352.14c29.73 0 58.246-11.812 79.266-32.836 21.023-21.023 32.836-49.535 32.836-79.266 0-29.73-11.812-58.246-32.836-79.27-21.023-21.023-49.535-32.832-79.266-32.832-29.73 0-58.246 11.812-79.27 32.832-21.023 21.023-32.832 49.539-32.832 79.27 0 29.73 11.812 58.246 32.836 79.266 21.02 21.023 49.535 32.836 79.266 32.836zm-98.41-94.176c1.6914 0.97656 3.2305 2.0117 5.1641 2.9141l-0.003906-0.003906c18.93 7.5078 38.93 11.98 59.254 13.246 1.1719 14.371 3.5938 28.609 7.2344 42.559 1.9805 7.5742 4.8828 14.875 8.6445 21.742-19.984-3.6367-38.383-13.293-52.734-27.672-14.348-14.379-23.965-32.793-27.559-52.789zm169.2 52.855c-18.754 18.805-44.227 29.359-70.785 29.32-0.89844-0.058594-1.7539-0.41016-2.4375-1-3.3164-2.9844-5.8867-6.7109-7.5-10.871-6.6953-17.031-10.742-34.988-12.004-53.246 7.1094 0.41016 14.391 0.6875 21.941 0.69922 25.828 0.37109 51.594-2.625 76.645-8.9219 7.5703-1.9805 14.871-4.8828 21.738-8.6445-3.6367 19.949-13.262 38.32-27.598 52.664zm0-141.57c18.805 18.754 29.355 44.23 29.316 70.785v0.003906c-0.0625 0.89844-0.41016 1.75-1 2.4336-2.9844 3.3164-6.707 5.8867-10.871 7.5-28.262 10.168-58.211 14.836-88.23 13.746-7.8906 0.003906-15.543-0.26562-22.926-0.73047-0.46875-7.4062-0.76953-15.047-0.75781-22.953-0.36719-24.734 2.4805-49.41 8.4766-73.41 1.832-7.4023 4.7539-14.496 8.6602-21.043 1.0938-1.7773 2.4844-3.3477 4.1094-4.6523 0.68359-0.58594 1.5391-0.9375 2.4375-0.99609 26.555-0.039063 52.031 10.512 70.785 29.316zm-141.57 0c14.391-14.379 32.832-24.02 52.855-27.625-0.97656 1.6875-2.0117 3.2266-2.9102 5.1602v-0.003906c-10.941 29.832-15.984 61.5-14.848 93.254 0.003906 7.5273 0.22266 14.863 0.63281 21.957-12.953-1.1641-25.785-3.4219-38.355-6.75-7.4062-1.8359-14.496-4.7539-21.047-8.6641-1.7734-1.0898-3.3477-2.4805-4.6523-4.1094-0.58594-0.67969-0.9375-1.5352-0.99609-2.4336-0.039062-26.559 10.516-52.035 29.32-70.785z"/>
 </g>
</svg>
