<?xml version="1.0" encoding="UTF-8"?>
<svg width="1200pt" height="1200pt" version="1.1" viewBox="0 0 1200 1200" xmlns="http://www.w3.org/2000/svg">
 <path d="m834.7 360.9-516.76 420.01c-35.23 28.711-55.445 71.152-55.445 116.45v77.637c0 82.727 67.273 150 150 150h375c82.727 0 150-67.273 150-150v-77.637c0-45.301-20.215-87.746-55.48-116.49l-142.12-115.5c-16.039-13.035-39.66-10.582-52.77 5.457-13.035 16.078-10.621 39.699 5.457 52.77l142.09 115.47c17.688 14.391 27.832 35.633 27.832 58.301v77.637c0 41.344-33.656 75-75 75h-375c-41.344 0-75-33.656-75-75v-77.637c0-22.668 10.145-43.91 27.797-58.266l516.76-420.01c35.227-28.711 55.441-71.152 55.441-116.45v-77.637c0-82.727-67.273-150-150-150h-375c-82.727 0-150 67.273-150 150v77.637c0 45.301 20.215 87.746 55.48 116.49l142.12 115.5c16.113 13.074 39.66 10.621 52.77-5.457 13.035-16.078 10.621-39.699-5.457-52.77l-142.09-115.47c-17.688-14.391-27.832-35.633-27.832-58.301v-77.637c0-41.344 33.656-75 75-75h375c41.344 0 75 33.656 75 75v77.637c0 22.668-10.145 43.91-27.797 58.266z" fill="#84b2f4"/>
</svg>
