<?xml version="1.0" encoding="UTF-8"?>
<svg width="1200pt" height="1200pt" version="1.1" viewBox="0 0 1200 1200" fill="#000000" xmlns="http://www.w3.org/2000/svg">
 <path d="m970.13 169.03c-6.6562-11.812-19.125-19.031-32.625-19.031h-487.5v-37.5c0-20.719-16.781-37.5-37.5-37.5s-37.5 16.781-37.5 37.5v937.5h-112.5c-20.719 0-37.5 16.781-37.5 37.5s16.781 37.5 37.5 37.5h300c20.719 0 37.5-16.781 37.5-37.5s-16.781-37.5-37.5-37.5h-112.5v-450h487.5c13.5 0 25.969-7.2188 32.625-19.031 6.6562-11.766 6.4688-26.203-0.46875-37.781l-100.92-168.19 100.92-168.19c6.9375-11.578 7.125-26.016 0.46875-37.781z"/>
</svg>
