<svg height='100px' width='100px'  fill="#000000" xmlns:dc="http://purl.org/dc/elements/1.1/" xmlns:cc="http://creativecommons.org/ns#" xmlns:rdf="http://www.w3.org/1999/02/22-rdf-syntax-ns#" xmlns:svg="http://www.w3.org/2000/svg" xmlns="http://www.w3.org/2000/svg" xmlns:sodipodi="http://sodipodi.sourceforge.net/DTD/sodipodi-0.dtd" xmlns:inkscape="http://www.inkscape.org/namespaces/inkscape" viewBox="0 0 16.933333 16.933333" version="1.1" x="0px" y="0px"><g transform="translate(0,-280.06667)" style="" display="inline"><path style="display:inline;opacity:1;vector-effect:none;fill:#000000;fill-opacity:1;fill-rule:evenodd;stroke-width:0.99999994;stroke-linecap:butt;stroke-linejoin:miter;stroke-miterlimit:4;stroke-dasharray:none;stroke-dashoffset:0;stroke-opacity:1" d="m 381,1 c -0.554,0 -1,0.39025 -1,0.875 v 5.1699219 c -5.42331,0.4516001 -9.89775,4.5397411 -10.81641,9.9453121 l -6.87304,4.28125 C 360.78846,22.226558 360,24 360,26 c 0,1.116118 0.32003,2.243533 0.92773,3.205078 1.63325,2.584235 4.96854,3.51875 7.70508,2.181641 l 2.29492,-1.080078 c 0.60681,-0.251349 1.2726,-0.500729 2.07227,-0.03906 0.62019,0.358067 1,1.016288 1,1.732422 -0.3247,12.915049 -6.80085,18.281921 -11.20703,20.513672 C 361.0848,53.353733 360,55.09644 360,57 v 2 c 0,1.06048 0.42187,2.078252 1.17188,2.828125 C 361.92175,62.577998 362.93952,63 364,63 h 36 c 1.06048,0 2.07825,-0.422002 2.82812,-1.171875 C 403.57813,61.078252 404,60.06048 404,59 v -2 c 0,-1.90356 -1.0848,-3.646267 -2.79297,-4.486328 C 396.80085,50.281921 390.35595,44.915049 390.03125,32 H 393 c 1.06048,0 2.07825,-0.422002 2.82812,-1.171875 C 396.57813,30.078252 397,29.06048 397,28 V 17 C 397,12.756921 395.31281,8.6878107 392.3125,5.6875 389.31219,2.6871899 385.24308,1 381,1 Z" transform="matrix(0.26458333,0,0,0.26458333,-92.604138,280.06667)"></path></g></svg>